# xmcd CD database file
#
# Track frame offsets:
#	150
#	27078
#	41085
#	54414
#	69232
#	89219
#	120605
#	139617
#	156139
#	173932
#	188436
#	196860
#	218417
#
# Disc length: 3602 seconds
#
# Revision: 0
# Processed by: cddbd v1.5.2PL0 Copyright (c) Steve Scherf et al.
# Submitted via: Feurio! 1.68 - http://www.feurio.com
#
DISCID=aa0e100d
DTITLE=Philippe Cohen Solal - The Moonshine Sessions
DYEAR=2007
DGENRE=
TTITLE0=The Academy Of Trust
TTITLE1=Luna's Song
TTITLE2=The Roads To Nowhere
TTITLE3=Psycho Girls and Psycow Boys
TTITLE4=I Lost Him
TTITLE5=Fade Away
TTITLE6=Always Alone
TTITLE7=Dancing Queen
TTITLE8=The Private Song
TTITLE9=Pretty Vacant
TTITLE10=I'm Rollin'
TTITLE11=Seven Guns and Seven Holes
TTITLE12=Hidden Track
EXTD=
EXTT0=
EXTT1=
EXTT2=
EXTT3=
EXTT4=
EXTT5=
EXTT6=
EXTT7=
EXTT8=
EXTT9=
EXTT10=
EXTT11=
EXTT12=
PLAYORDER=
